<mxfile host="app.diagrams.net" modified="2023-10-12T11:57:34.845Z" agent="Mozilla/5.0 (Windows NT 10.0; Win64; x64) AppleWebKit/537.36 (KHTML, like Gecko) Chrome/117.0.0.0 Safari/537.36 Edg/117.0.2045.60" version="21.3.2" etag="YrSnHU8CWFshif74pmBo" type="github">
  <diagram name="Page-1" id="YDyJO0L3j_UVQsTX8UVE">
    <mxGraphModel>
      <root>
        <mxCell id="0" />
        <mxCell id="1" parent="0" />
      </root>
    </mxGraphModel>
  </diagram>
</mxfile>
